<?xml version="1.0" encoding="utf-8"?>
<!-- Generator: Adobe Illustrator 19.0.0, SVG Export Plug-In . SVG Version: 6.00 Build 0)  -->
<svg version="1.1" id="Layer_1" xmlns="http://www.w3.org/2000/svg" xmlns:xlink="http://www.w3.org/1999/xlink" x="0px" y="0px"
	 viewBox="0 0 21.1 30.6" style="enable-background:new 0 0 21.1 30.6;" xml:space="preserve">
<style type="text/css">
	.st0{fill:#FFFFFF;}
</style>
<g id="XMLID_159_">
	<g id="XMLID_164_">
	</g>
	<g id="XMLID_160_">
		<path id="XMLID_163_" class="st0" d="M14.7,11.8c0.9,1.5,1,3.3,0.2,3.8c0,0-0.1,0.1-0.1,0.1c-0.3-1.2-0.8-2.4-1.5-3.4
			c-0.1-0.1-0.1-0.1-0.2-0.2l-0.1,0.1c0.1,3.6,0.8,7.3,1.7,11c-0.7-0.2-1.4-0.3-2.2-0.4c0.2-2.9,0.1-6.8-0.4-10.5
			c-0.5,1.1-0.9,2.4-1.3,3.9c-0.6-0.7-0.4-2.3,0.3-4.1C10,12.5,8.7,13.2,7.3,14c0-0.6,0.7-1.4,1.8-2c-0.7,0.2-1.3,0.5-2,0.9
			c0,0,0-0.1,0-0.2c-0.2-0.9,1.1-2.1,2.8-2.5C9,9.8,8,9.5,6.9,9.2c0.6-0.5,1.9-0.4,3.3,0.1c-0.6-0.5-1.3-1-2-1.4
			c0,0,0.1-0.1,0.1-0.1C9,7,10.9,7.5,12.1,9l0.2-0.5c0.8-1.7,2.5-2.7,3.3-2.2c0,0,0.1,0,0.1,0.1c-0.9,0.9-1.8,1.9-2.3,3l0.1,0.1
			C14,9.3,14.5,9.1,15,8.9c2-0.7,3.9-0.7,4.5,0c-2.1,0.3-4,0.7-5.4,1.3l1.5,0.8c2.1,1.2,3.3,3.2,2.8,4c0,0-0.1,0.1-0.1,0.1
			C17.3,13.7,16.1,12.5,14.7,11.8z"/>
		<path id="XMLID_162_" class="st0" d="M7.9,16.2c2.4,0,4.3,1,4.3,2.4l-0.8-0.2c-0.2-0.1-0.4-0.1-0.7,0l-0.5,0.1
			c-0.2,0.1-0.4,0.1-0.6,0L9,18.3c-0.2,0-0.4-0.1-0.6,0l-0.2,0.1v4.8c-0.2,0-0.3,0.1-0.5,0.2v-4.9c-0.2,0-0.4,0-0.6,0l-0.3-0.1
			c-0.2-0.1-0.5-0.1-0.7,0l-0.3,0.1c-0.3,0.1-0.5,0.1-0.8,0c-0.3-0.1-0.6-0.1-0.8,0l-0.5,0.2C3.5,17.3,5.5,16.2,7.9,16.2z"/>
		<path id="XMLID_161_" class="st0" d="M11.4,22.9c3.4,0,6.2,1.5,7,3.5H4.4C5.2,24.4,8,22.9,11.4,22.9z"/>
	</g>
</g>
</svg>
