<?xml version="1.0" encoding="utf-8"?>
<!-- Generator: Adobe Illustrator 19.0.0, SVG Export Plug-In . SVG Version: 6.00 Build 0)  -->
<svg version="1.1" id="Layer_1" xmlns="http://www.w3.org/2000/svg" xmlns:xlink="http://www.w3.org/1999/xlink" x="0px" y="0px"
	 viewBox="0 0 28 36.2" style="enable-background:new 0 0 28 36.2;" xml:space="preserve">
<style type="text/css">
	.st0{fill:#FFFFFF;}
</style>
<g id="XMLID_55_">
	<g id="XMLID_69_">
		<g id="XMLID_174_">
			<path id="XMLID_175_" class="st0" d="M17.2,29.9v-4.7h-2.8v4.7H17.2z M22.6,29.9V9.7H9v4.5v15.7h4.2v-5.3c0-0.3,0.3-0.6,0.6-0.6
				h4c0.4,0,0.6,0.3,0.6,0.6v5.3H22.6z M14.8,19.3h2v2h-2V19.3z M14.8,15.4h2v2h-2V15.4z M18.8,19.3h2v2h-2V19.3z M14.8,11.4h2v2h-2
				V11.4z M10.9,11.4h2v2h-2V11.4z M18.8,15.4h2v2h-2V15.4z M18.8,11.4h2v2h-2V11.4z M10.9,15.4h2v2h-2V15.4z M10.9,19.3h2v2h-2
				V19.3z"/>
		</g>
	</g>
</g>
</svg>
