<?xml version="1.0" encoding="utf-8"?>
<!-- Generator: Adobe Illustrator 19.0.0, SVG Export Plug-In . SVG Version: 6.00 Build 0)  -->
<svg version="1.1" id="Layer_1" xmlns="http://www.w3.org/2000/svg" xmlns:xlink="http://www.w3.org/1999/xlink" x="0px" y="0px"
	 viewBox="218 284.5 245 225" style="enable-background:new 218 284.5 245 225;" xml:space="preserve">
<style type="text/css">
	.st0{fill:#2C2E3D;}
	.st1{fill:#A7A9AC;}
	.st2{fill:#D1D3D4;}
	.st3{fill:#FFE49F;}
	.st4{fill:#231F20;}
</style>
<rect x="214.2" y="281" class="st0" width="252.6" height="232"/>
<g>
	<g>
		<polygon class="st1" points="245.1,484.3 245.1,411.2 245.1,395 253.2,395 295.8,395 295.8,411.2 295.8,484.3 		"/>
		<polygon class="st1" points="385.2,484.3 385.2,411.2 385.2,395 427.8,395 435.9,395 435.9,411.2 435.9,484.3 		"/>
	</g>
	<polygon class="st0" points="340.5,447.8 356.7,447.8 356.7,484.3 324.3,484.3 324.3,447.8 	"/>
	<polygon class="st2" points="356.7,447.8 340.5,447.8 324.3,447.8 324.3,484.3 295.8,484.3 295.8,411.2 295.8,395 295.8,334.1 
		295.8,317.8 303.9,317.8 377.1,317.8 385.2,317.8 385.2,334.1 385.2,395 385.2,411.2 385.2,484.3 356.7,484.3 	"/>
	<path class="st3" d="M435.9,390.9h-4.1v-8.1h-8.1v8.1h-34.5v-73.1c0-2.2-1.8-4.1-4.1-4.1h-4.1v-8.1H373v8.1h-65v-8.1h-8.1v8.1h-4.1
		c-2.2,0-4.1,1.8-4.1,4.1v73.1h-34.5v-8.1h-8.1v8.1h-4.1c-2.2,0-4.1,1.8-4.1,4.1v89.3c0,2.2,1.8,4.1,4.1,4.1h50.8h89.3h50.8
		c2.2,0,4.1-1.8,4.1-4.1V395C440,392.7,438.2,390.9,435.9,390.9z M381.1,321.9V395v85.3h-20.3v-28.4h6.1v-8.1h-52.8v8.1h6.1v28.4
		h-20.3V395v-56.9H373V330h-73.1v-8.1H381.1z M336.4,451.8v20.3h8.1v-20.3h8.1v28.4h-24.4v-28.4H336.4z M291.8,480.3h-42.6v-65h32.5
		v-8.1h-32.5V399h42.6V480.3z M389.2,480.3V399h42.6v8.1h-32.5v8.1h32.5v65L389.2,480.3L389.2,480.3z"/>
	<rect x="255.2" y="423.4" class="st4" width="8.1" height="8.1"/>
	<rect x="267.4" y="423.4" class="st4" width="8.1" height="8.1"/>
	<rect x="279.6" y="423.4" class="st4" width="8.1" height="8.1"/>
	<rect x="255.2" y="437.6" class="st4" width="8.1" height="8.1"/>
	<rect x="267.4" y="437.6" class="st4" width="8.1" height="8.1"/>
	<rect x="279.6" y="437.6" class="st4" width="8.1" height="8.1"/>
	<rect x="255.2" y="451.8" class="st4" width="8.1" height="8.1"/>
	<rect x="267.4" y="451.8" class="st4" width="8.1" height="8.1"/>
	<rect x="279.6" y="451.8" class="st4" width="8.1" height="8.1"/>
	<rect x="255.2" y="466" class="st4" width="8.1" height="8.1"/>
	<rect x="267.4" y="466" class="st4" width="8.1" height="8.1"/>
	<rect x="279.6" y="466" class="st4" width="8.1" height="8.1"/>
	<rect x="312.1" y="350.3" class="st4" width="8.1" height="8.1"/>
	<rect x="328.3" y="350.3" class="st4" width="8.1" height="8.1"/>
	<rect x="344.6" y="350.3" class="st4" width="8.1" height="8.1"/>
	<rect x="312.1" y="364.5" class="st4" width="8.1" height="8.1"/>
	<rect x="328.3" y="364.5" class="st4" width="8.1" height="8.1"/>
	<rect x="344.6" y="364.5" class="st4" width="8.1" height="8.1"/>
	<rect x="312.1" y="378.7" class="st4" width="8.1" height="8.1"/>
	<rect x="328.3" y="378.7" class="st4" width="8.1" height="8.1"/>
	<rect x="344.6" y="378.7" class="st4" width="8.1" height="8.1"/>
	<rect x="312.1" y="392.9" class="st4" width="8.1" height="8.1"/>
	<rect x="328.3" y="392.9" class="st4" width="8.1" height="8.1"/>
	<rect x="344.6" y="392.9" class="st4" width="8.1" height="8.1"/>
	<rect x="360.8" y="350.3" class="st4" width="8.1" height="8.1"/>
	<rect x="360.8" y="364.5" class="st4" width="8.1" height="8.1"/>
	<rect x="360.8" y="378.7" class="st4" width="8.1" height="8.1"/>
	<rect x="360.8" y="392.9" class="st4" width="8.1" height="8.1"/>
	<rect x="312.1" y="407.2" class="st4" width="8.1" height="8.1"/>
	<rect x="328.3" y="407.2" class="st4" width="8.1" height="8.1"/>
	<rect x="344.6" y="407.2" class="st4" width="8.1" height="8.1"/>
	<rect x="312.1" y="421.4" class="st4" width="8.1" height="8.1"/>
	<rect x="328.3" y="421.4" class="st4" width="8.1" height="8.1"/>
	<rect x="344.6" y="421.4" class="st4" width="8.1" height="8.1"/>
	<rect x="360.8" y="407.2" class="st4" width="8.1" height="8.1"/>
	<rect x="360.8" y="421.4" class="st4" width="8.1" height="8.1"/>
	<rect x="393.3" y="423.4" class="st4" width="8.1" height="8.1"/>
	<rect x="405.5" y="423.4" class="st4" width="8.1" height="8.1"/>
	<rect x="417.7" y="423.4" class="st4" width="8.1" height="8.1"/>
	<rect x="393.3" y="437.6" class="st4" width="8.1" height="8.1"/>
	<rect x="405.5" y="437.6" class="st4" width="8.1" height="8.1"/>
	<rect x="417.7" y="437.6" class="st4" width="8.1" height="8.1"/>
	<rect x="393.3" y="451.8" class="st4" width="8.1" height="8.1"/>
	<rect x="405.5" y="451.8" class="st4" width="8.1" height="8.1"/>
	<rect x="417.7" y="451.8" class="st4" width="8.1" height="8.1"/>
	<rect x="393.3" y="466" class="st4" width="8.1" height="8.1"/>
	<rect x="405.5" y="466" class="st4" width="8.1" height="8.1"/>
	<rect x="417.7" y="466" class="st4" width="8.1" height="8.1"/>
</g>
</svg>
