<?xml version="1.0" encoding="utf-8"?>
<!-- Generator: Adobe Illustrator 19.0.0, SVG Export Plug-In . SVG Version: 6.00 Build 0)  -->
<svg version="1.1" id="Layer_1" xmlns="http://www.w3.org/2000/svg" xmlns:xlink="http://www.w3.org/1999/xlink" x="0px" y="0px"
	 viewBox="0 0 82 50" style="enable-background:new 0 0 82 50;" xml:space="preserve">
<style type="text/css">
	.st0{fill:#FFFFFF;}
	.st1{fill:none;}
</style>
<g id="XMLID_224_">
	<path id="XMLID_234_" class="st0" d="M45,32v7.7h2.3v2.5c0,3,4.3,3,4.4,0v-2.5h7.8h7.9v2.5c0,3,4.4,3,4.4,0v-2.5H74V32
		c0-2.1-1.7-3.1-2.6-3.3l-2.4-6c-0.4-1.1-1.4-2.1-3.2-2.1h-3.4V19c0-0.6-0.4-0.9-0.9-0.9h-2h-2c-0.5,0-0.9,0.3-0.9,0.9v1.6h-3.4
		c-1.8,0-2.8,1-3.3,2.1l-2.4,6C46.6,28.9,45,29.9,45,32z M67.4,33c0-1.1,0.9-2,2-2c1.1,0,2,0.9,2,2c0,1.1-0.9,2-2,2
		C68.3,35,67.4,34.1,67.4,33z M50.1,28.6l1.8-4.7c0.2-0.7,0.6-1.2,1.3-1.2h6.3h0h6.3c0.8,0,1.1,0.5,1.4,1.2l1.8,4.7h-9.4h0H50.1z
		 M47.5,33c0-1.1,0.9-2,2-2c1.1,0,2,0.9,2,2c0,1.1-0.9,2-2,2C48.4,35,47.5,34.1,47.5,33z"/>
	<g id="XMLID_225_">
		<path id="XMLID_229_" class="st0" d="M36.9,34.3V14c0,0-1.4-4.3-13-4.3s-13,4.3-13,4.3v20.3c0,1.6,1.3,2.9,2.9,2.9H34
			C35.6,37.2,36.9,35.9,36.9,34.3z M29.6,32.1c0-1.2,1-2.2,2.2-2.2s2.2,1,2.2,2.2c0,1.2-1,2.2-2.2,2.2S29.6,33.3,29.6,32.1z
			 M13.7,32.1c0-1.2,1-2.2,2.2-2.2s2.2,1,2.2,2.2c0,1.2-1,2.2-2.2,2.2S13.7,33.3,13.7,32.1z M35.4,24.2c0,0.8-0.6,1.4-1.4,1.4H13.7
			c-0.8,0-1.4-0.6-1.4-1.4v-7.2c0-0.8,0.6-1.4,1.4-1.4H34c0.8,0,1.4,0.6,1.4,1.4V24.2z"/>
		<polygon id="XMLID_228_" class="st0" points="29.6,38.6 32.5,38.6 36.9,44.4 32.5,44.4 		"/>
		<polygon id="XMLID_216_" class="st1" points="18,38.6 15.1,44.4 10.8,44.4 15.1,38.6 		"/>
	</g>
</g>
</svg>
