<?xml version="1.0" encoding="utf-8"?>
<!-- Generator: Adobe Illustrator 19.0.0, SVG Export Plug-In . SVG Version: 6.00 Build 0)  -->
<svg version="1.1" id="Layer_1" xmlns="http://www.w3.org/2000/svg" xmlns:xlink="http://www.w3.org/1999/xlink" x="0px" y="0px"
	 viewBox="0 0 28 36.2" style="enable-background:new 0 0 28 36.2;" xml:space="preserve">
<style type="text/css">
	.st0{fill:#FFFFFF;}
</style>
<g id="XMLID_54_">
	<g id="XMLID_55_">
		<g id="XMLID_88_">
			<g id="XMLID_89_">
				<path id="XMLID_99_" class="st0" d="M17.7,11.4l1.5-0.4c-0.2-0.1-0.4-0.3-0.6-0.4C17.8,10.4,17.5,10.7,17.7,11.4z"/>
				<path id="XMLID_98_" class="st0" d="M21.5,14.9c0.9,0.2,1.2-0.1,0.9-1l0,0l-1.4,0.6C21.1,14.6,21.3,14.7,21.5,14.9z"/>
				<path id="XMLID_97_" class="st0" d="M9.9,20.4c0.2,0.2,0.3,0.4,0.5,0.5l0.2-1.6C9.9,19.3,9.7,19.6,9.9,20.4z"/>
				<path id="XMLID_96_" class="st0" d="M18,15.9l-3.6-3.3l3.5-0.9l1.7-0.5l0.7-0.2l0.6-0.2l1.8-0.5L25,9.9c0.5-0.2,1.2,0.3,1.2,0.3
					l0.9,0.8c0.2,0.4-0.8,0.7-1.3,1l-1.1,0.5L23.3,13l-1.2,0.5l-1.5,0.7l-1.3,0.5L18,15.9z"/>
				<path id="XMLID_94_" class="st0" d="M24.3,23.2L23,21.5c-1.3-1.6,0,0,0,0s-3.8-4-5.3-5.3l-4-3.7c-1.6-1.3-3.1-2.6-4.4-3.3
					C8.2,8.6,7.3,8.4,6.9,8.8l0,0.1l-0.1,0c-0.3,0.4-0.1,1.3,0.7,2.4c0.9,1.2,2.3,2.6,3.8,4l4.3,3.6c1.4,1.3,2.5,2.1,2.5,2.1
					s1.6,1.3,3.3,2.3l1.8,1.1c0.9,0.5,1.5,0.9,1.8,0.6l0.1-0.1C25.3,24.6,24.9,24.1,24.3,23.2z"/>
				<path id="XMLID_93_" class="st0" d="M26.6,21.2c0.2-0.1,0.2-0.3,0.1-0.5c0,0-0.9-0.3-1.3-0.2l-1.9,0.8l1.2,1.6L26.6,21.2z"/>
				<path id="XMLID_92_" class="st0" d="M11.5,16l3.7,3.1l-1.1,1.4l-0.4,1.3l-0.5,1.6l-0.4,1.2l-0.5,1.6l-0.3,1.1
					c-0.2,0.5-0.4,1.5-0.8,1.4l-0.9-0.8c0,0-0.6-0.7-0.4-1.2l0.3-2.3l0.3-1.9l0.1-0.6l0.1-0.7l0.2-1.8L11.5,16z"/>
				<path id="XMLID_91_" class="st0" d="M20.7,25.8c-0.1,0.4,0.3,1.3,0.3,1.3c0.2,0.1,0.3,0,0.5-0.2l1.5-2.1l-1.7-1L20.7,25.8z"/>
				<path id="XMLID_90_" class="st0" d="M14.6,22.7c-0.2-0.2-0.3-0.4-0.5-0.5l-0.4,1.5l0.1,0C14.6,23.9,14.9,23.6,14.6,22.7z"/>
			</g>
		</g>
	</g>
</g>
</svg>
