<svg xmlns="http://www.w3.org/2000/svg" viewBox="0 0 448.9 78.24"><defs><style>.cls-1{fill:#fff;}</style></defs><title>Asset 1</title><g id="Layer_2" data-name="Layer 2"><g id="Layer_1-2" data-name="Layer 1"><path class="cls-1" d="M0,65.16V1.21H16.34v24H37.25v-24H53.58v64H37.25V39.58H16.34V65.16Z"/><path class="cls-1" d="M62.39,33.88C62.39,13,78.46,0,96.09,0c19.71,0,33.8,15.38,33.8,33.19S115.88,66.37,96,66.37c-20.14,0-33.62-16-33.62-32.41Zm16.33-.78C78.72,42.87,85.37,52,96.35,52c11.58,0,17.2-10.55,17.2-18.76s-5.62-18.92-17.37-18.92C84.86,14.35,78.72,24,78.72,33Z"/><path class="cls-1" d="M301.57,50.82H322V65.16H281.61V54.45l22-38.89h-22V1.21H322V14.43Z"/><path class="cls-1" d="M341.84,65.16H324.12L349.44,1.21h14.09l24.54,64H370.18l-3-9.24H344.77Zm13.91-44.51L348.83,43h14.09Z"/><path class="cls-1" d="M397.14,15.56H384.52V1.21H426V15.56H413.47v49.6H397.14Z"/><path class="cls-1" d="M432.56,1.21H448.9v64H432.56Z"/><path class="cls-1" d="M166,28.78v13h19.1a13,13,0,0,1-5.28,7.43,17.14,17.14,0,0,1-10,2.85c-8,0-17.54-5.79-17.54-19.18,0-12.62,9.42-18.58,17.45-18.58a15.94,15.94,0,0,1,10.72,4,17.85,17.85,0,0,1,3.37,4.32h18.32C198.58,10.28,185.44,0,170.15,0c-18.85,0-34.23,13.83-34.23,32.93a33.44,33.44,0,0,0,34,33.53c10.55,0,24.9-5.27,31.12-19.36a41.06,41.06,0,0,0,2.94-18.32Z"/><path class="cls-1" d="M277.21,33.19C277.21,15.38,263.12,0,243.42,0c-17.63,0-33.71,13-33.71,33.88V34a32.77,32.77,0,0,0,25,31.38l8.72,12.9,8.76-12.95A32.93,32.93,0,0,0,277.21,33.19ZM243.68,52c-11,0-17.63-9.16-17.63-18.93V33c0-9,6.13-18.66,17.46-18.66,11.75,0,17.37,10.63,17.37,18.92S255.26,52,243.68,52Z"/><path class="cls-1" d="M243.48,25.25c-4.77,0-7.36,4.08-7.36,7.86v0c0,4.12,2.81,8,7.43,8,4.89,0,7.25-4.45,7.25-7.91S248.44,25.25,243.48,25.25Z"/></g></g></svg>